<svg width="53" height="47" viewBox="0 0 53 47" fill="none" xmlns="http://www.w3.org/2000/svg">
<path d="M38.87 24.34L52.13 16.29C52.2936 16.1912 52.4288 16.0518 52.5227 15.8854C52.6166 15.7189 52.6659 15.5311 52.6659 15.34C52.6659 15.1489 52.6166 14.9611 52.5227 14.7946C52.4288 14.6282 52.2936 14.4888 52.13 14.39C48.21 12.1 38.13 6.75999 38.13 6.75999C37.9007 6.6392 37.6486 6.56768 37.39 6.55V10.45C37.5742 10.4487 37.7569 10.484 37.9273 10.5539C38.0978 10.6237 38.2527 10.7268 38.3829 10.8571C38.5132 10.9874 38.6163 11.1422 38.6862 11.3127C38.756 11.4831 38.7913 11.6658 38.79 11.85L38.87 24.34Z" fill="#004563"/>
<path d="M37.43 6.55V10.44C37.0638 10.4503 36.7157 10.6017 36.4586 10.8626C36.2014 11.1235 36.055 11.4737 36.05 11.84L36 24.65C35.9908 25.0684 35.8771 25.4779 35.6693 25.8412C35.4614 26.2045 35.166 26.51 34.81 26.73L32.22 28.27V9.39999L36.51 6.8C36.7856 6.6285 37.1055 6.54158 37.43 6.55Z" fill="#076C95"/>
<path d="M0.929993 46.85L15.84 38.05C16.1906 37.834 16.4809 37.5327 16.6837 37.1742C16.8866 36.8158 16.9954 36.4118 17 36L17.13 5.36C17.1237 5.12332 17.1788 4.88903 17.29 4.67999C17.4059 4.46891 17.5747 4.29158 17.7798 4.16536C17.9849 4.03914 18.2193 3.96838 18.46 3.96001V0C18.1322 0.000846866 17.8107 0.0907065 17.53 0.259995L1.84 9.74001C1.53772 9.91452 1.28638 10.1651 1.11095 10.4668C0.935515 10.7686 0.842103 11.111 0.839996 11.46L0.929993 46.85Z" fill="#076C95"/>
<path d="M32.21 9.50999C32.21 9.94999 32.21 28.27 32.21 28.27L21.33 22.27C20.9129 22.0351 20.5655 21.6939 20.3231 21.2811C20.0807 20.8683 19.952 20.3987 19.95 19.92V5.36999C19.9552 5.29675 19.9552 5.22323 19.95 5.14999C19.9122 4.93559 19.8305 4.73133 19.71 4.55C19.585 4.37444 19.4206 4.2306 19.23 4.13C19.1216 4.06472 19.0035 4.01744 18.88 3.99C18.7504 3.97547 18.6196 3.97547 18.49 3.99V-3.19671e-06C18.7813 -0.0016844 19.0678 0.074253 19.32 0.219998L29.32 5.74C30.47 6.37 31.87 6.9 32.18 8.32C32.2426 8.71359 32.2527 9.11375 32.21 9.50999Z" fill="#004563"/>
</svg>
